# xmcd CD database file
#
# Track frame offsets:
#	150
#	12147
#	25165
#	37129
#	51526
#	65612
#	78054
#	90611
#	110422
#	120642
#	133703
#	148780
#	162150
#	172625
#	185513
#	202376
#	215153
#	228471
#	241483
#	251685
#
# Disc length: 3514 seconds
#
# Revision: 0
# Processed by: cddbd v1.5.2PL0 Copyright (c) Steve Scherf et al.
# Submitted via: jetAudio 7
#
DISCID=220db814
DTITLE=Various Artist - 100 Golden Country Hits CD3
DYEAR=1900
DGENRE=Country
TTITLE0=Lynn Anderson - Rose Garden
TTITLE1=Hank Willians - Jambalaya (On The Bayou)
TTITLE2=Tammy Wynette - Stand By Your Man
TTITLE3=Freddy Fender - Wasted Days And Wasted Nights
TTITLE4=George Jones - A Good Year For The Roses
TTITLE5=Frankie Laine - Moonlight Gambler
TTITLE6=Billy Joe Royal - Raindrops Keep Fallin' On My Head
TTITLE7=John Denver - Rocky Mountain High (Live)
TTITLE8=Loretta Lynn - Out Of My Head And Back In My Bed
TTITLE9=Bobby Bare - Detroit City
TTITLE10=Anne Murray - Both Sides Now
TTITLE11=Jimmy Dean - Big Bad John
TTITLE12=Floyd Cramer - San Antonio Rose
TTITLE13=Johnny Horton - North To Alaska
TTITLE14=Linda Ronstadt - I'm Gonna Love You
TTITLE15=Conway Twitty - I Can't Stop Loving You
TTITLE16=Gordon Lightfoot - Long Way Back Home
TTITLE17=Crystal Gayle - Talkin' In Your Sleep
TTITLE18=Willie Nelson - Eight More Miles To Louisville
TTITLE19=Stonewall Jackson - Waterloo
EXTD=
EXTT0=
EXTT1=
EXTT2=
EXTT3=
EXTT4=
EXTT5=
EXTT6=
EXTT7=
EXTT8=
EXTT9=
EXTT10=
EXTT11=
EXTT12=
EXTT13=
EXTT14=
EXTT15=
EXTT16=
EXTT17=
EXTT18=
EXTT19=
PLAYORDER=
